<?xml version="1.0" encoding="utf-8"?>
<!-- Generator: Adobe Illustrator 26.3.1, SVG Export Plug-In . SVG Version: 6.00 Build 0)  -->
<svg version="1.1" id="Layer_1" xmlns="http://www.w3.org/2000/svg" xmlns:xlink="http://www.w3.org/1999/xlink" x="0px" y="0px"
	 viewBox="0 0 400 82" style="enable-background:new 0 0 400 82;" xml:space="preserve">
<style type="text/css">
	.st0{fill:#7D4788;}
	.st1{fill:#BF539E;}
	.st2{fill:#F9D41D;}
</style>
<g>
	<g>
		<g>
			<g>
				<g>
					<path class="st0" d="M164.3,4.2c0.7,5.5,1,11.3,1,17.6c0,32.8-8.1,59.3-31,59.3c-20.8,0-33.6-30.2-33.6-63.2
						c0-4.6,0.3-9.1,0.8-13.7l26,2.2c-0.5,3.3-0.9,9.3-0.9,15.3c0,20.1,2.8,33.4,10.2,33.4c7.6,0,10.6-10.4,10.6-26.7
						c0-8.2-0.9-16.8-2.4-24.4L164.3,4.2z"/>
				</g>
			</g>
			<path class="st1" d="M171.8,5.5c5.8-1.6,16.9-2.8,25.4-2.8c15.5,0,31.1,4,31.1,16.7c0,6.7-6.4,12.2-15.1,17
				c11.7,1.8,22.3,7.7,22.3,16.9c0,18.2-22.2,25.2-41.7,25.2c-6.2,0-15.2-0.7-19.9-2L171.8,5.5z M191.6,30.6
				c0.7,0.1,1.3,0.2,2.1,0.2c3.9,0,11.5-3.3,11.5-8.4c0-4.2-3.9-5.8-8-5.8c-2.2,0-4.1,0.4-5.9,1.1L191.6,30.6z M192.4,61.6
				c1.6,0.3,3.7,0.6,6,0.6c6.2,0,13.5-1.7,13.5-8.1c0-5.6-5.1-7.4-10.7-7.4c-3.5,0-6.8,0.7-9.2,1.6L192.4,61.6z"/>
			<path class="st1" d="M244.2,80.4l-3.7-76.9l22.5-0.8l-0.6,54l27.2-3.5l0.6,23.9L244.2,80.4z"/>
			<path class="st1" d="M295.4,80.8L294.9,31l23-0.4l0.3,49.3L295.4,80.8z"/>
			<path class="st1" d="M380.6,78.1l-19-19.4L346,82l-24.2-13.5l24.6-25.8l-24.8-26.5L339.9,5l19.7,20.6L377.1,0l21.8,11l-23.6,29
				L400,60.8L380.6,78.1z"/>
		</g>
	</g>
	<g>
		<g>
			<path class="st2" d="M0,24.8c0-5.9,4.7-11.1,10.7-11.1c5.5,0,10.8,4.6,10.8,11c0,5.5-4.3,11-10.7,11C5.2,35.6,0,31.1,0,24.8z
				 M0,60.3c0-5.9,4.7-11.1,10.7-11.1c5.5,0,10.8,4.6,10.8,11c0,5.5-4.3,11-10.7,11C5.2,71.2,0,66.6,0,60.3z M294.4,11.1
				c0-5.9,4.7-11.1,10.7-11.1c5.5,0,10.8,4.6,10.8,11c0,5.5-4.3,11-10.7,11C299.7,21.9,294.4,17.4,294.4,11.1z"/>
			<path class="st2" d="M37.9,80.4L32.3,5.7c7.5-2.9,16-4.2,24-4.2c26.4,0,40.4,10.5,40.4,29.1c0,13.4-12.8,26.9-39,26.9l3.2,21.3
				L37.9,80.4z M55.1,40c8.5-1.6,17.2-5.6,17.2-12.4c0-6.3-4.8-8.8-10.8-8.8c-3.1,0-6.1,0.6-9.2,1.9L55.1,40z"/>
		</g>
	</g>
</g>
</svg>
